<svg width="653" height="70" viewBox="0 0 653 70" fill="none" xmlns="http://www.w3.org/2000/svg">
<mask id="mask0_2271_4973" style="mask-type:alpha" maskUnits="userSpaceOnUse" x="0" y="0" width="70" height="70">
<rect x="1.38839" y="0.942591" width="67.8643" height="67.8643" rx="11.6123" fill="white" stroke="white" stroke-width="0.904857"/>
</mask>
<g mask="url(#mask0_2271_4973)">
<path fill-rule="evenodd" clip-rule="evenodd" d="M32.2103 38.4246C34.7799 38.3672 37.3872 38.419 39.9631 38.3973C43.3384 38.369 46.5075 38.8804 48.5236 35.3728C49.0602 34.4391 52.601 28.4369 52.7147 28.0335C49.652 28.0762 46.5597 28.0355 43.4934 28.0365C40.5085 28.0375 37.2305 27.9046 34.2825 28.0519C29.0815 28.3116 25.1577 31.8707 23.7035 35.8802C22.1889 40.0566 22.9494 43.2702 24.9981 46.8399L33.4397 61.4136C33.6743 61.2226 36.2251 56.6887 36.6182 56.0036C37.6894 54.1369 39.123 52.2914 38.3244 49.481C37.8149 47.6879 32.3847 39.2342 32.2102 38.4245L32.2103 38.4246Z" fill="white"/>
<path fill-rule="evenodd" clip-rule="evenodd" d="M13.1206 26.184C17.7977 26.3206 22.6771 26.1928 27.3767 26.1928H48.7889C51.1636 26.1928 53.0526 26.2511 54.8581 24.2082C54.9797 24.0707 55.1196 23.8587 55.2482 23.6765C55.7144 23.0162 56.7072 21.1638 57.2036 20.3373C57.5336 19.7878 59.7298 16.0723 59.7516 15.7894C47.9616 15.6369 35.9229 15.8013 24.0766 15.7874C20.2214 15.7828 18.8127 16.2302 16.9927 19.4207L14.3789 23.9446C14.0761 24.4831 13.2839 25.6854 13.1206 26.1839V26.184Z" fill="white"/>
<path d="M15.8889 27.8516L17.6175 32.0276L21.7935 33.7561L17.6175 35.4847L15.8889 39.6607L14.1604 35.4847L9.98438 33.7561L14.1604 32.0276L15.8889 27.8516Z" fill="#D9D9D9"/>
<rect x="1.84082" y="1.39502" width="66.9594" height="66.9594" rx="11.1599" fill="white" fill-opacity="0.1"/>
<rect x="1.38839" y="0.942591" width="67.8643" height="67.8643" rx="11.6123" stroke="white" stroke-opacity="0.4" stroke-width="0.904857"/>
<g filter="url(#filter0_f_2271_4973)">
<circle cx="1.86865" cy="51.7484" r="23.4551" transform="rotate(15.8993 1.86865 51.7484)" fill="#01D8FD"/>
</g>
<g filter="url(#filter1_f_2271_4973)">
<circle cx="27.1387" cy="65.7752" r="23.4551" transform="rotate(15.8993 27.1387 65.7752)" fill="#FF66E2"/>
</g>
<g filter="url(#filter2_f_2271_4973)">
<circle cx="56.3955" cy="69.2308" r="23.4551" transform="rotate(15.8993 56.3955 69.2308)" fill="#FF8F2F"/>
</g>
<g filter="url(#filter3_f_2271_4973)">
<circle cx="69.394" cy="47.5701" r="23.4551" transform="rotate(15.8993 69.394 47.5701)" fill="#FEDA3B"/>
</g>
</g>
<path d="M87.5487 22.6638H104.944V26.1039H91.1843V35.7204H102.208V38.8086H91.1843V50.0278H87.5487V22.6638ZM111.632 21.0611V50.0278H108.31V21.0611H111.632ZM128.004 43.265H127.73C127.626 44.3596 127.339 45.4672 126.87 46.5878C126.427 47.6823 125.723 48.6205 124.759 49.4024C123.795 50.1581 122.557 50.536 121.046 50.536C119.326 50.536 117.944 50.0409 116.902 49.0505C115.859 48.0342 115.338 46.666 115.338 44.9459C115.338 42.9653 115.964 41.5189 117.215 40.6068C118.492 39.6686 120.264 39.1995 122.531 39.1995C124.303 39.1995 126.062 39.3559 127.808 39.6686V38.4958C127.808 36.8801 127.43 35.6813 126.675 34.8994C125.919 34.1176 124.824 33.7267 123.391 33.7267C122.401 33.7267 121.41 33.857 120.42 34.1176C119.456 34.3782 118.557 34.73 117.723 35.1731L117.41 31.8894C118.296 31.3682 119.273 30.9773 120.342 30.7166C121.41 30.43 122.492 30.2866 123.586 30.2866C126.088 30.2866 127.965 30.9773 129.216 32.3585C130.467 33.7137 131.092 35.6422 131.092 38.144V50.0278H128.942L128.004 43.265ZM118.661 44.2032C118.661 45.1935 119 45.9753 119.677 46.5487C120.355 47.122 121.254 47.4087 122.375 47.4087C123.73 47.4087 124.929 46.9005 125.971 45.8841C127.04 44.8678 127.652 43.3432 127.808 41.3104V40.9977C126.505 40.8153 125.124 40.7241 123.665 40.7241C120.329 40.7241 118.661 41.8838 118.661 44.2032ZM139.424 40.1768L134.264 30.8339H138.056L142.864 39.9813L147.672 30.8339H151.464L146.304 40.1768L151.816 50.0278H147.985L142.864 40.3722L137.704 50.0278H133.912L139.424 40.1768ZM158.092 40.1768L152.932 30.8339H156.724L161.532 39.9813L166.34 30.8339H170.132L164.972 40.1768L170.484 50.0278H166.653L161.532 40.3722L156.372 50.0278H152.58L158.092 40.1768ZM184.465 43.265H184.191C184.087 44.3596 183.8 45.4672 183.331 46.5878C182.888 47.6823 182.185 48.6205 181.22 49.4024C180.256 50.1581 179.018 50.536 177.507 50.536C175.787 50.536 174.405 50.0409 173.363 49.0505C172.321 48.0342 171.799 46.666 171.799 44.9459C171.799 42.9653 172.425 41.5189 173.676 40.6068C174.953 39.6686 176.725 39.1995 178.992 39.1995C180.764 39.1995 182.523 39.3559 184.27 39.6686V38.4958C184.27 36.8801 183.892 35.6813 183.136 34.8994C182.38 34.1176 181.286 33.7267 179.852 33.7267C178.862 33.7267 177.872 33.857 176.881 34.1176C175.917 34.3782 175.018 34.73 174.184 35.1731L173.871 31.8894C174.757 31.3682 175.735 30.9773 176.803 30.7166C177.872 30.43 178.953 30.2866 180.048 30.2866C182.55 30.2866 184.426 30.9773 185.677 32.3585C186.928 33.7137 187.553 35.6422 187.553 38.144V50.0278H185.403L184.465 43.265ZM175.122 44.2032C175.122 45.1935 175.461 45.9753 176.139 46.5487C176.816 47.122 177.715 47.4087 178.836 47.4087C180.191 47.4087 181.39 46.9005 182.432 45.8841C183.501 44.8678 184.113 43.3432 184.27 41.3104V40.9977C182.967 40.8153 181.585 40.7241 180.126 40.7241C176.79 40.7241 175.122 41.8838 175.122 44.2032ZM209.098 29.8175C208.108 29.2703 206.87 28.8142 205.384 28.4493C203.899 28.0845 202.4 27.9021 200.889 27.9021C198.543 27.9021 197.371 28.6448 197.371 30.1303C197.371 30.886 197.749 31.5115 198.504 32.0067C199.286 32.4758 200.602 33.01 202.453 33.6094C204.616 34.3391 206.336 35.0819 207.613 35.8376C208.89 36.5934 209.841 37.5055 210.466 38.574C211.092 39.6165 211.405 40.9195 211.405 42.4832C211.405 44.3074 210.909 45.832 209.919 47.0569C208.955 48.2817 207.652 49.1939 206.01 49.7933C204.394 50.3666 202.622 50.6533 200.693 50.6533C198.687 50.6533 196.823 50.4578 195.103 50.0669C193.409 49.676 191.976 49.1418 190.803 48.4642L191.116 42.2095C192.341 42.8611 193.813 43.4605 195.533 44.0077C197.28 44.529 198.986 44.7896 200.654 44.7896C202.192 44.7896 203.326 44.5941 204.055 44.2032C204.811 43.7862 205.189 43.2129 205.189 42.4832C205.189 41.6492 204.772 40.9847 203.938 40.4895C203.13 39.9944 201.697 39.421 199.638 38.7695C197.657 38.144 196.055 37.4795 194.83 36.7758C193.631 36.0461 192.719 35.16 192.093 34.1176C191.468 33.0752 191.155 31.7721 191.155 30.2085C191.155 27.6024 192.028 25.5957 193.774 24.1884C195.52 22.755 197.983 22.0383 201.163 22.0383C204.394 22.0383 207.17 22.6508 209.489 23.8756L209.098 29.8175ZM226.048 50.2233C225.266 50.51 224.08 50.6533 222.491 50.6533C220.171 50.6272 218.282 49.9887 216.822 48.7378C215.389 47.4608 214.672 45.3369 214.672 42.3659V35.6031H212.014V30.5212H215.337L214.672 24.7747H220.888L218.738 30.5212H225.892V35.6031H220.145V42.0141C220.145 43.2911 220.445 44.1771 221.044 44.6723C221.644 45.1414 222.452 45.3759 223.468 45.3759C224.458 45.3759 225.24 45.2717 225.813 45.0632L226.048 50.2233ZM243.089 50.0278L241.33 42.2486H241.135C241.108 44.5159 240.613 46.4835 239.649 48.1514C238.685 49.8193 237.069 50.6533 234.802 50.6533C232.899 50.6533 231.362 49.8975 230.189 48.386C229.016 46.8484 228.43 44.7505 228.43 42.0923V30.5212H233.942V41.5059C233.942 42.7047 234.202 43.6429 234.724 44.3205C235.245 44.972 236.014 45.2978 237.03 45.2978C237.89 45.2978 238.633 44.985 239.258 44.3596C239.884 43.7341 240.353 42.9523 240.665 42.0141C240.978 41.0759 241.135 40.1377 241.135 39.1995V30.5212H246.607V50.0278H243.089ZM268.712 50.0278H265.233L263.473 42.7959H263.278C263.148 45.2978 262.548 47.2393 261.48 48.6205C260.437 49.9757 258.939 50.6533 256.984 50.6533C254.691 50.6533 252.893 49.7412 251.59 47.9169C250.313 46.0926 249.674 43.5517 249.674 40.2941C249.674 37.0104 250.287 34.4694 251.511 32.6712C252.762 30.847 254.482 29.9348 256.672 29.9348C258.574 29.9348 260.099 30.6776 261.245 32.163C262.418 33.6224 263.096 35.6552 263.278 38.2613H263.552L263.239 31.8503V20.7483H268.712V50.0278ZM255.225 40.2941C255.225 41.8577 255.551 43.0826 256.202 43.9687C256.854 44.8287 257.753 45.2587 258.9 45.2587C260.203 45.2587 261.219 44.8156 261.949 43.9296C262.705 43.0435 263.083 41.8186 263.083 40.255C263.083 38.6913 262.705 37.4795 261.949 36.6195C261.193 35.7334 260.164 35.2903 258.861 35.2903C257.714 35.2903 256.815 35.7334 256.163 36.6195C255.538 37.4795 255.225 38.7043 255.225 40.2941ZM278.93 50.0278H273.458V35.6031H271.659V30.5212H278.93V50.0278ZM275.647 27.9412C274.683 27.9412 273.927 27.6675 273.379 27.1202C272.858 26.573 272.598 25.8172 272.598 24.8529C272.598 23.8887 272.858 23.1329 273.379 22.5856C273.927 22.0383 274.683 21.7647 275.647 21.7647C276.559 21.7647 277.276 22.0383 277.797 22.5856C278.344 23.1329 278.618 23.8887 278.618 24.8529C278.618 25.8172 278.344 26.573 277.797 27.1202C277.276 27.6675 276.559 27.9412 275.647 27.9412ZM291.548 50.6533C288.525 50.6533 286.166 49.7412 284.472 47.9169C282.804 46.0926 281.97 43.5517 281.97 40.2941C281.97 37.0104 282.804 34.4694 284.472 32.6712C286.166 30.847 288.525 29.9348 291.548 29.9348C294.545 29.9348 296.877 30.847 298.545 32.6712C300.213 34.4955 301.047 37.0495 301.047 40.3331C301.047 43.5908 300.213 46.1317 298.545 47.956C296.877 49.7542 294.545 50.6533 291.548 50.6533ZM287.521 40.2941C287.521 42.0401 287.873 43.3693 288.577 44.2814C289.281 45.1935 290.271 45.6496 291.548 45.6496C292.799 45.6496 293.763 45.1935 294.441 44.2814C295.144 43.3693 295.496 42.0401 295.496 40.2941C295.496 38.548 295.144 37.2189 294.441 36.3067C293.763 35.3946 292.799 34.9385 291.548 34.9385C290.271 34.9385 289.281 35.3946 288.577 36.3067C287.873 37.2189 287.521 38.548 287.521 40.2941ZM302.66 35.7985C302.66 33.9743 303.337 32.5409 304.692 31.4985C306.074 30.456 307.976 29.9348 310.4 29.9348C311.651 29.9348 312.849 30.0651 313.996 30.3257C315.169 30.5863 316.172 30.9382 317.006 31.3812L316.733 36.5413C315.873 36.0982 314.869 35.7464 313.723 35.4858C312.602 35.1991 311.559 35.0558 310.595 35.0558C309.24 35.0558 308.562 35.5249 308.562 36.4631C308.562 36.9583 308.758 37.3492 309.149 37.6358C309.566 37.9225 310.348 38.1961 311.494 38.4568C313.709 39.004 315.312 39.7598 316.303 40.7241C317.293 41.6623 317.788 42.9002 317.788 44.4378C317.788 46.3141 317.058 47.8257 315.599 48.9724C314.166 50.093 312.146 50.6533 309.54 50.6533C306.803 50.6533 304.471 50.119 302.542 49.0505L302.816 43.5386C305.292 44.8156 307.533 45.4541 309.54 45.4541C310.217 45.4541 310.765 45.3369 311.182 45.1023C311.599 44.8417 311.807 44.4508 311.807 43.9296C311.807 42.8871 310.895 42.1574 309.071 41.7404C307.403 41.4016 306.1 40.9716 305.161 40.4504C304.249 39.9292 303.598 39.3037 303.207 38.574C302.842 37.8183 302.66 36.8931 302.66 35.7985Z" fill="white" fill-opacity="0.6"/>
<path d="M392.015 43.3778L389.068 35.8212H376.826L373.879 43.3023L370.819 42.0554L381.171 16.5519H385.101L395.302 42.0554L392.015 43.3778ZM377.96 32.7986H387.897L382.947 20.1035L377.96 32.7986ZM405.918 51.7657C404.759 51.7657 403.626 51.6271 402.518 51.35C401.434 51.073 400.465 50.6574 399.608 50.1032L400.855 47.1561C401.46 47.6347 402.165 48.0251 402.971 48.3274C403.777 48.6549 404.759 48.8186 405.918 48.8186C407.706 48.8186 409.104 48.34 410.112 47.3828C411.145 46.4508 411.661 44.9521 411.661 42.8867V40.4685C411.157 41.0731 410.427 41.6524 409.47 42.2066C408.538 42.7355 407.417 43 406.107 43C404.621 43 403.21 42.6222 401.875 41.8665C400.54 41.0857 399.457 39.9522 398.626 38.466C397.795 36.9799 397.379 35.1915 397.379 33.1008C397.379 31.1361 397.782 29.3855 398.588 27.849C399.419 26.3125 400.528 25.1034 401.913 24.2218C403.298 23.3402 404.822 22.8994 406.485 22.8994C407.593 22.8994 408.601 23.0884 409.507 23.4662C410.414 23.844 411.195 24.31 411.85 24.8642V23.3528H414.948V42.5466C414.948 44.7128 414.57 46.476 413.815 47.8362C413.059 49.1964 412.001 50.1914 410.641 50.8211C409.306 51.4508 407.732 51.7657 405.918 51.7657ZM406.863 39.9774C407.87 39.9774 408.777 39.7507 409.583 39.2973C410.389 38.8439 411.044 38.3149 411.548 37.7104V27.4334C410.994 27.0304 410.326 26.6651 409.545 26.3377C408.764 26.0102 407.858 25.8465 406.825 25.8465C405.792 25.8465 404.822 26.1236 403.916 26.6777C403.009 27.2319 402.266 28.0379 401.686 29.0958C401.132 30.1286 400.855 31.4006 400.855 32.9119C400.855 34.3477 401.132 35.5945 401.686 36.6525C402.266 37.7104 403.009 38.529 403.916 39.1083C404.822 39.6877 405.805 39.9774 406.863 39.9774ZM428.662 43.4534C425.841 43.4534 423.599 42.5592 421.937 40.7708C420.299 38.9572 419.481 36.4258 419.481 33.1764C419.481 31.2117 419.846 29.4611 420.576 27.9246C421.332 26.3629 422.377 25.1412 423.712 24.2596C425.047 23.3528 426.596 22.8994 428.36 22.8994C430.249 22.8994 431.811 23.315 433.045 24.1463C434.304 24.9523 435.249 26.048 435.878 27.4334C436.508 28.8188 436.823 30.3427 436.823 32.0051C436.823 32.8867 436.785 33.7432 436.71 34.5744H422.957C423.183 36.4132 423.826 37.8489 424.884 38.8817C425.942 39.9144 427.34 40.4308 429.078 40.4308C430.211 40.4308 431.231 40.3174 432.138 40.0907C433.045 39.8388 433.914 39.524 434.745 39.1461L435.538 42.0554C434.632 42.4584 433.611 42.7859 432.478 43.0378C431.345 43.3149 430.072 43.4534 428.662 43.4534ZM422.919 31.8162H433.687C433.687 29.9019 433.208 28.4283 432.251 27.3956C431.294 26.3629 429.972 25.8465 428.284 25.8465C426.823 25.8465 425.614 26.3629 424.657 27.3956C423.7 28.4032 423.12 29.8767 422.919 31.8162ZM441.355 43V23.3528H444.642V26.64C445.347 25.582 446.242 24.7004 447.325 23.9951C448.433 23.2647 449.743 22.8994 451.254 22.8994C453.471 22.8994 455.121 23.5669 456.204 24.9019C457.312 26.2369 457.866 28.0001 457.866 30.1916V43H454.466V30.5694C454.466 29.1588 454.126 28.0253 453.446 27.1689C452.791 26.3125 451.871 25.8843 450.687 25.8843C449.529 25.8843 448.433 26.2999 447.4 27.1311C446.367 27.9372 445.486 28.8943 444.755 30.0026V43H441.355ZM471.649 43.4534C469.785 43.4534 468.148 43.0252 466.737 42.1688C465.352 41.2872 464.282 40.0781 463.526 38.5416C462.77 36.9799 462.392 35.1915 462.392 33.1764C462.392 31.2873 462.77 29.5618 463.526 28.0001C464.307 26.4384 465.415 25.2042 466.851 24.2974C468.287 23.3654 469.974 22.8994 471.914 22.8994C473.022 22.8994 473.992 23.0002 474.823 23.2017C475.679 23.4032 476.498 23.6929 477.279 24.0707L476.259 26.9422C475.553 26.5896 474.873 26.3377 474.218 26.1866C473.589 26.0102 472.883 25.9221 472.103 25.9221C470.339 25.9221 468.853 26.5644 467.644 27.849C466.46 29.1084 465.868 30.8591 465.868 33.1008C465.868 34.461 466.12 35.6953 466.624 36.8036C467.128 37.9119 467.821 38.7935 468.702 39.4484C469.609 40.1033 470.667 40.4308 471.876 40.4308C472.833 40.4308 473.652 40.33 474.332 40.1285C475.012 39.9018 475.742 39.5869 476.523 39.1839L477.581 42.0554C476.8 42.4836 475.919 42.8237 474.936 43.0756C473.979 43.3275 472.883 43.4534 471.649 43.4534ZM482.027 51.7657C481.272 51.7657 480.604 51.6901 480.025 51.539C479.471 51.3878 479.03 51.2115 478.703 51.01L479.458 48.1763C479.76 48.3526 480.138 48.5037 480.592 48.6297C481.045 48.7556 481.549 48.8186 482.103 48.8186C483.161 48.8186 484.106 48.4785 484.937 47.7984C485.768 47.1183 486.561 45.7833 487.317 43.7934L488.186 41.5265H486.373L478.703 24.2596L481.725 22.8994L489.055 39.2595L494.76 23.0506L497.896 24.2596L490.68 43.9824C489.949 45.9975 489.156 47.5717 488.299 48.7052C487.443 49.8387 486.498 50.6322 485.466 51.0856C484.433 51.539 483.287 51.7657 482.027 51.7657ZM528.434 43.4534L525.147 36.2746C524.316 34.4862 523.271 33.2142 522.011 32.4585C520.752 31.7029 519.14 31.325 517.175 31.325H516.608V43H513.019V16.6275C514.354 16.5015 515.626 16.4134 516.835 16.363C518.069 16.2874 519.379 16.2496 520.764 16.2496C523.988 16.2496 526.406 16.9045 528.019 18.2143C529.656 19.5242 530.474 21.2118 530.474 23.2773C530.474 25.116 529.92 26.6022 528.812 27.7357C527.729 28.844 526.155 29.6752 524.089 30.2293C524.769 30.5316 525.374 30.8968 525.903 31.325C526.432 31.7281 526.935 32.2822 527.414 32.9875C527.918 33.6676 528.422 34.5618 528.925 35.6701L531.797 41.8665L528.434 43.4534ZM516.608 28.3024H520.764C522.578 28.3024 524.051 27.8994 525.185 27.0933C526.318 26.2873 526.885 25.1286 526.885 23.6173C526.885 22.3579 526.356 21.3251 525.298 20.5191C524.24 19.6879 522.729 19.2723 520.764 19.2723C519.908 19.2723 519.14 19.2849 518.459 19.31C517.779 19.3352 517.162 19.373 516.608 19.4234V28.3024ZM543.819 43.4534C540.998 43.4534 538.756 42.5592 537.094 40.7708C535.456 38.9572 534.638 36.4258 534.638 33.1764C534.638 31.2117 535.003 29.4611 535.733 27.9246C536.489 26.3629 537.534 25.1412 538.869 24.2596C540.204 23.3528 541.753 22.8994 543.517 22.8994C545.406 22.8994 546.968 23.315 548.202 24.1463C549.461 24.9523 550.406 26.048 551.036 27.4334C551.665 28.8188 551.98 30.3427 551.98 32.0051C551.98 32.8867 551.942 33.7432 551.867 34.5744H538.114C538.34 36.4132 538.983 37.8489 540.041 38.8817C541.099 39.9144 542.497 40.4308 544.235 40.4308C545.368 40.4308 546.388 40.3174 547.295 40.0907C548.202 39.8388 549.071 39.524 549.902 39.1461L550.695 42.0554C549.789 42.4584 548.769 42.7859 547.635 43.0378C546.502 43.3149 545.23 43.4534 543.819 43.4534ZM538.076 31.8162H548.844C548.844 29.9019 548.366 28.4283 547.408 27.3956C546.451 26.3629 545.129 25.8465 543.441 25.8465C541.98 25.8465 540.771 26.3629 539.814 27.3956C538.857 28.4032 538.277 29.8767 538.076 31.8162ZM561.802 43.4534C560.315 43.4534 558.968 43.2645 557.759 42.8867C556.575 42.5088 555.593 42.0176 554.812 41.4131L556.247 38.5794C556.902 39.1335 557.721 39.5995 558.703 39.9774C559.711 40.33 560.781 40.5063 561.915 40.5063C563.326 40.5063 564.383 40.2796 565.089 39.8262C565.819 39.3476 566.184 38.7431 566.184 38.0126C566.184 37.4837 566.046 37.0177 565.769 36.6147C565.517 36.2117 565.038 35.8212 564.333 35.4434C563.628 35.0404 562.608 34.6122 561.273 34.1588C559.434 33.5291 558.048 32.786 557.117 31.9296C556.21 31.048 555.756 29.8389 555.756 28.3024C555.756 26.7911 556.411 25.5191 557.721 24.4863C559.056 23.4284 560.895 22.8994 563.237 22.8994C564.497 22.8994 565.618 23.038 566.6 23.315C567.582 23.5669 568.464 23.8944 569.245 24.2974L568.3 27.0933C567.62 26.6903 566.839 26.3629 565.958 26.111C565.101 25.8591 564.144 25.7332 563.086 25.7332C561.776 25.7332 560.781 25.9976 560.101 26.5266C559.421 27.0556 559.081 27.6349 559.081 28.2646C559.081 28.8692 559.346 29.3855 559.875 29.8137C560.404 30.2419 561.436 30.7079 562.973 31.2117C565.467 32.0429 567.205 32.9623 568.187 33.9699C569.169 34.9774 569.66 36.2368 569.66 37.7482C569.66 39.5114 568.943 40.9093 567.507 41.9421C566.096 42.9496 564.195 43.4534 561.802 43.4534ZM582.045 43.4534C579.224 43.4534 576.982 42.5592 575.319 40.7708C573.682 38.9572 572.863 36.4258 572.863 33.1764C572.863 31.2117 573.229 29.4611 573.959 27.9246C574.715 26.3629 575.76 25.1412 577.095 24.2596C578.43 23.3528 579.979 22.8994 581.742 22.8994C583.632 22.8994 585.193 23.315 586.428 24.1463C587.687 24.9523 588.632 26.048 589.261 27.4334C589.891 28.8188 590.206 30.3427 590.206 32.0051C590.206 32.8867 590.168 33.7432 590.093 34.5744H576.339C576.566 36.4132 577.209 37.8489 578.266 38.8817C579.324 39.9144 580.722 40.4308 582.46 40.4308C583.594 40.4308 584.614 40.3174 585.521 40.0907C586.428 39.8388 587.297 39.524 588.128 39.1461L588.921 42.0554C588.014 42.4584 586.994 42.7859 585.861 43.0378C584.727 43.3149 583.455 43.4534 582.045 43.4534ZM576.302 31.8162H587.07C587.07 29.9019 586.591 28.4283 585.634 27.3956C584.677 26.3629 583.355 25.8465 581.667 25.8465C580.206 25.8465 578.997 26.3629 578.04 27.3956C577.083 28.4032 576.503 29.8767 576.302 31.8162ZM600.707 43.4534C599.549 43.4534 598.503 43.2393 597.571 42.8111C596.64 42.3577 595.896 41.6398 595.342 40.6575C594.813 39.6751 594.549 38.4031 594.549 36.8414V15.0406H597.949V36.5013C597.949 37.8615 598.226 38.8691 598.781 39.524C599.36 40.1789 600.153 40.5063 601.161 40.5063C601.639 40.5063 602.105 40.4559 602.559 40.3552C603.037 40.2292 603.44 40.0907 603.768 39.9396L604.599 42.6977C604.146 42.8992 603.579 43.0756 602.899 43.2267C602.244 43.3778 601.514 43.4534 600.707 43.4534ZM613.4 43.4534C612.242 43.4534 611.196 43.2393 610.264 42.8111C609.332 42.3577 608.589 41.6398 608.035 40.6575C607.506 39.6751 607.242 38.4031 607.242 36.8414V15.0406H610.642V36.5013C610.642 37.8615 610.919 38.8691 611.473 39.524C612.053 40.1789 612.846 40.5063 613.854 40.5063C614.332 40.5063 614.798 40.4559 615.252 40.3552C615.73 40.2292 616.133 40.0907 616.461 39.9396L617.292 42.6977C616.838 42.8992 616.272 43.0756 615.592 43.2267C614.937 43.3778 614.206 43.4534 613.4 43.4534ZM627.798 43.4534C624.976 43.4534 622.735 42.5592 621.072 40.7708C619.435 38.9572 618.616 36.4258 618.616 33.1764C618.616 31.2117 618.982 29.4611 619.712 27.9246C620.468 26.3629 621.513 25.1412 622.848 24.2596C624.183 23.3528 625.732 22.8994 627.495 22.8994C629.384 22.8994 630.946 23.315 632.18 24.1463C633.44 24.9523 634.384 26.048 635.014 27.4334C635.644 28.8188 635.959 30.3427 635.959 32.0051C635.959 32.8867 635.921 33.7432 635.845 34.5744H622.092C622.319 36.4132 622.961 37.8489 624.019 38.8817C625.077 39.9144 626.475 40.4308 628.213 40.4308C629.347 40.4308 630.367 40.3174 631.274 40.0907C632.18 39.8388 633.049 39.524 633.881 39.1461L634.674 42.0554C633.767 42.4584 632.747 42.7859 631.614 43.0378C630.48 43.3149 629.208 43.4534 627.798 43.4534ZM622.055 31.8162H632.823C632.823 29.9019 632.344 28.4283 631.387 27.3956C630.43 26.3629 629.107 25.8465 627.42 25.8465C625.959 25.8465 624.75 26.3629 623.793 27.3956C622.835 28.4032 622.256 29.8767 622.055 31.8162ZM640.491 43V23.3528H643.778V27.6223C644.105 26.7911 644.546 26.0228 645.1 25.3175C645.654 24.5871 646.347 24.0077 647.178 23.5795C648.009 23.1261 648.979 22.8994 650.088 22.8994C650.465 22.8994 650.843 22.9246 651.221 22.975C651.599 23.0002 651.914 23.0506 652.166 23.1261L651.145 26.64C650.667 26.4384 650.1 26.3377 649.445 26.3377C648.513 26.3377 647.619 26.6022 646.763 27.1311C645.931 27.6601 645.239 28.4787 644.685 29.587C644.156 30.6953 643.891 32.1059 643.891 33.8187V43H640.491Z" fill="white"/>
<path d="M343.987 3.07422V65.6261" stroke="white" stroke-opacity="0.2" stroke-width="2"/>
<defs>
<filter id="filter0_f_2271_4973" x="-57.7866" y="-7.90716" width="119.31" height="119.311" filterUnits="userSpaceOnUse" color-interpolation-filters="sRGB">
<feFlood flood-opacity="0" result="BackgroundImageFix"/>
<feBlend mode="normal" in="SourceGraphic" in2="BackgroundImageFix" result="shape"/>
<feGaussianBlur stdDeviation="18.0971" result="effect1_foregroundBlur_2271_4973"/>
</filter>
<filter id="filter1_f_2271_4973" x="-32.5165" y="6.11969" width="119.31" height="119.311" filterUnits="userSpaceOnUse" color-interpolation-filters="sRGB">
<feFlood flood-opacity="0" result="BackgroundImageFix"/>
<feBlend mode="normal" in="SourceGraphic" in2="BackgroundImageFix" result="shape"/>
<feGaussianBlur stdDeviation="18.0971" result="effect1_foregroundBlur_2271_4973"/>
</filter>
<filter id="filter2_f_2271_4973" x="-3.2597" y="9.57526" width="119.31" height="119.311" filterUnits="userSpaceOnUse" color-interpolation-filters="sRGB">
<feFlood flood-opacity="0" result="BackgroundImageFix"/>
<feBlend mode="normal" in="SourceGraphic" in2="BackgroundImageFix" result="shape"/>
<feGaussianBlur stdDeviation="18.0971" result="effect1_foregroundBlur_2271_4973"/>
</filter>
<filter id="filter3_f_2271_4973" x="9.73883" y="-12.0854" width="119.31" height="119.311" filterUnits="userSpaceOnUse" color-interpolation-filters="sRGB">
<feFlood flood-opacity="0" result="BackgroundImageFix"/>
<feBlend mode="normal" in="SourceGraphic" in2="BackgroundImageFix" result="shape"/>
<feGaussianBlur stdDeviation="18.0971" result="effect1_foregroundBlur_2271_4973"/>
</filter>
</defs>
</svg>
