<svg width="272" height="60" viewBox="0 0 272 60" fill="none" xmlns="http://www.w3.org/2000/svg">
<mask id="mask0_2214_9001" style="mask-type:alpha" maskUnits="userSpaceOnUse" x="0" y="0" width="60" height="60">
<rect x="0.639344" y="0.851624" width="57.9986" height="57.9986" rx="9.92421" fill="white" stroke="white" stroke-width="0.773315"/>
</mask>
<g mask="url(#mask0_2214_9001)">
<path fill-rule="evenodd" clip-rule="evenodd" d="M26.981 32.8841C29.1771 32.835 31.4054 32.8793 33.6068 32.8608C36.4915 32.8366 39.1998 33.2736 40.9228 30.276C41.3814 29.478 44.4075 24.3484 44.5046 24.0036C41.8872 24.0401 39.2445 24.0053 36.6239 24.0062C34.0729 24.007 31.2714 23.8935 28.752 24.0193C24.3071 24.2413 20.9537 27.283 19.7109 30.7096C18.4165 34.2789 19.0665 37.0253 20.8173 40.0761L28.0317 52.5312C28.2322 52.3679 30.4122 48.4931 30.7482 47.9076C31.6636 46.3123 32.8888 44.7351 32.2063 42.3332C31.7709 40.8008 27.1301 33.576 26.981 32.8841L26.981 32.8841Z" fill="white"/>
<path fill-rule="evenodd" clip-rule="evenodd" d="M10.6666 22.4237C14.6638 22.5404 18.8339 22.4311 22.8502 22.4311H41.1497C43.1792 22.4311 44.7935 22.481 46.3366 20.7351C46.4405 20.6176 46.5601 20.4364 46.67 20.2807C47.0684 19.7164 47.9169 18.1333 48.3411 17.427C48.6232 16.9573 50.5001 13.7819 50.5188 13.5401C40.4426 13.4099 30.1541 13.5503 20.0299 13.5384C16.7352 13.5345 15.5313 13.9169 13.9758 16.6436L11.742 20.5098C11.4832 20.9701 10.8062 21.9975 10.6666 22.4236V22.4237Z" fill="white"/>
<path d="M13.0325 23.8486L14.5097 27.4176L18.0787 28.8948L14.5097 30.3721L13.0325 33.941L11.5552 30.3721L7.98627 28.8948L11.5552 27.4176L13.0325 23.8486Z" fill="#D9D9D9"/>
<rect x="1.026" y="1.23828" width="57.2253" height="57.2253" rx="9.53755" fill="white" fill-opacity="0.1"/>
<rect x="0.639344" y="0.851624" width="57.9986" height="57.9986" rx="9.92421" stroke="white" stroke-opacity="0.4" stroke-width="0.773315"/>
<g filter="url(#filter0_f_2214_9001)">
<circle cx="1.04959" cy="44.2718" r="20.0453" transform="rotate(15.8993 1.04959 44.2718)" fill="#01D8FD"/>
</g>
<g filter="url(#filter1_f_2214_9001)">
<circle cx="22.6464" cy="56.2596" r="20.0453" transform="rotate(15.8993 22.6464 56.2596)" fill="#FF66E2"/>
</g>
<g filter="url(#filter2_f_2214_9001)">
<circle cx="47.6502" cy="59.2132" r="20.0453" transform="rotate(15.8993 47.6502 59.2132)" fill="#FF8F2F"/>
</g>
<g filter="url(#filter3_f_2214_9001)">
<circle cx="58.7587" cy="40.701" r="20.0453" transform="rotate(15.8993 58.7587 40.701)" fill="#FEDA3B"/>
</g>
</g>
<path d="M74.283 19.2302H89.1498V22.1701H77.39V30.3887H86.8112V33.0279H77.39V42.6162H74.283V19.2302ZM94.8655 17.8604V42.6162H92.0258V17.8604H94.8655ZM108.857 36.8365H108.623C108.534 37.772 108.289 38.7185 107.888 39.6763C107.509 40.6117 106.908 41.4135 106.084 42.0817C105.26 42.7276 104.202 43.0505 102.91 43.0505C101.44 43.0505 100.26 42.6273 99.3689 41.781C98.478 40.9124 98.0326 39.7431 98.0326 38.2731C98.0326 36.5804 98.5671 35.3443 99.6362 34.5647C100.728 33.7629 102.242 33.362 104.18 33.362C105.694 33.362 107.198 33.4957 108.69 33.7629V32.7607C108.69 31.3798 108.367 30.3553 107.721 29.6871C107.075 29.0189 106.14 28.6848 104.915 28.6848C104.068 28.6848 103.222 28.7962 102.376 29.0189C101.552 29.2416 100.783 29.5423 100.07 29.9209L99.8032 27.1146C100.56 26.6692 101.396 26.3351 102.309 26.1124C103.222 25.8674 104.146 25.7449 105.082 25.7449C107.22 25.7449 108.824 26.3351 109.893 27.5155C110.962 28.6737 111.496 30.3218 111.496 32.46V42.6162H109.659L108.857 36.8365ZM100.872 37.6383C100.872 38.4847 101.162 39.1529 101.741 39.6428C102.32 40.1328 103.088 40.3778 104.046 40.3778C105.204 40.3778 106.229 39.9435 107.12 39.0749C108.033 38.2063 108.556 36.9033 108.69 35.1661V34.8988C107.576 34.7429 106.396 34.665 105.149 34.665C102.298 34.665 100.872 35.6561 100.872 37.6383ZM118.617 34.1972L114.207 26.2126H117.448L121.557 34.0302L125.666 26.2126H128.907L124.497 34.1972L129.207 42.6162H125.933L121.557 34.3643L117.147 42.6162H113.906L118.617 34.1972ZM134.571 34.1972L130.161 26.2126H133.402L137.511 34.0302L141.62 26.2126H144.861L140.451 34.1972L145.161 42.6162H141.887L137.511 34.3643L133.101 42.6162H129.86L134.571 34.1972ZM157.11 36.8365H156.876C156.787 37.772 156.542 38.7185 156.141 39.6763C155.763 40.6117 155.161 41.4135 154.337 42.0817C153.513 42.7276 152.455 43.0505 151.163 43.0505C149.693 43.0505 148.513 42.6273 147.622 41.781C146.731 40.9124 146.286 39.7431 146.286 38.2731C146.286 36.5804 146.82 35.3443 147.889 34.5647C148.981 33.7629 150.495 33.362 152.433 33.362C153.947 33.362 155.451 33.4957 156.943 33.7629V32.7607C156.943 31.3798 156.62 30.3553 155.974 29.6871C155.328 29.0189 154.393 28.6848 153.168 28.6848C152.322 28.6848 151.475 28.7962 150.629 29.0189C149.805 29.2416 149.036 29.5423 148.324 29.9209L148.056 27.1146C148.814 26.6692 149.649 26.3351 150.562 26.1124C151.475 25.8674 152.4 25.7449 153.335 25.7449C155.473 25.7449 157.077 26.3351 158.146 27.5155C159.215 28.6737 159.749 30.3218 159.749 32.46V42.6162H157.912L157.11 36.8365ZM149.126 37.6383C149.126 38.4847 149.415 39.1529 149.994 39.6428C150.573 40.1328 151.342 40.3778 152.299 40.3778C153.458 40.3778 154.482 39.9435 155.373 39.0749C156.286 38.2063 156.809 36.9033 156.943 35.1661V34.8988C155.83 34.7429 154.649 34.665 153.402 34.665C150.551 34.665 149.126 35.6561 149.126 37.6383ZM178.162 25.344C177.316 24.8762 176.258 24.4865 174.988 24.1747C173.719 23.8629 172.438 23.7069 171.146 23.7069C169.142 23.7069 168.14 24.3417 168.14 25.6112C168.14 26.2571 168.463 26.7917 169.109 27.2148C169.777 27.6158 170.901 28.0723 172.483 28.5846C174.331 29.2082 175.801 29.843 176.893 30.4889C177.984 31.1348 178.797 31.9143 179.332 32.8275C179.866 33.7184 180.133 34.832 180.133 36.1684C180.133 37.7274 179.71 39.0304 178.864 40.0772C178.04 41.124 176.926 41.9035 175.523 42.4158C174.142 42.9058 172.628 43.1507 170.979 43.1507C169.264 43.1507 167.672 42.9837 166.202 42.6496C164.754 42.3155 163.529 41.8589 162.527 41.2799L162.794 35.9345C163.841 36.4913 165.1 37.0036 166.57 37.4713C168.062 37.9167 169.521 38.1395 170.946 38.1395C172.26 38.1395 173.229 37.9724 173.853 37.6383C174.498 37.282 174.821 36.792 174.821 36.1684C174.821 35.4556 174.465 34.8877 173.752 34.4645C173.062 34.0413 171.837 33.5513 170.077 32.9945C168.385 32.46 167.015 31.8921 165.968 31.2907C164.944 30.6671 164.164 29.9098 163.63 29.0189C163.095 28.128 162.828 27.0144 162.828 25.6781C162.828 23.4508 163.574 21.7358 165.066 20.5331C166.558 19.3081 168.663 18.6957 171.38 18.6957C174.142 18.6957 176.514 19.2191 178.496 20.2659L178.162 25.344ZM192.648 42.7833C191.98 43.0283 190.966 43.1507 189.608 43.1507C187.626 43.1285 186.011 42.5828 184.764 41.5137C183.539 40.4224 182.926 38.6072 182.926 36.0681V30.2884H180.654V25.9453H183.494L182.926 21.0343H188.238L186.401 25.9453H192.514V30.2884H187.603V35.7674C187.603 36.8588 187.859 37.6161 188.372 38.0392C188.884 38.4401 189.574 38.6406 190.443 38.6406C191.289 38.6406 191.958 38.5515 192.448 38.3733L192.648 42.7833ZM207.212 42.6162L205.708 35.9679H205.541C205.519 37.9056 205.096 39.5872 204.272 41.0126C203.448 42.438 202.067 43.1507 200.129 43.1507C198.503 43.1507 197.189 42.5048 196.187 41.213C195.185 39.899 194.684 38.1061 194.684 35.8343V25.9453H199.394V35.3331C199.394 36.3577 199.617 37.1595 200.062 37.7386C200.508 38.2954 201.165 38.5738 202.034 38.5738C202.769 38.5738 203.403 38.3065 203.938 37.772C204.472 37.2374 204.873 36.5693 205.141 35.7674C205.408 34.9656 205.541 34.1638 205.541 33.362V25.9453H210.219V42.6162H207.212ZM229.11 42.6162H226.136L224.633 36.4356H224.466C224.354 38.5738 223.842 40.2331 222.929 41.4135C222.038 42.5717 220.757 43.1507 219.087 43.1507C217.127 43.1507 215.59 42.3712 214.477 40.8121C213.385 39.2531 212.84 37.0815 212.84 34.2975C212.84 31.4911 213.363 29.3196 214.41 27.7828C215.479 26.2237 216.949 25.4442 218.82 25.4442C220.446 25.4442 221.749 26.079 222.729 27.3485C223.731 28.5957 224.31 30.333 224.466 32.5602H224.7L224.432 27.0812V17.5932H229.11V42.6162ZM217.584 34.2975C217.584 35.6338 217.862 36.6806 218.419 37.4379C218.976 38.1729 219.744 38.5404 220.724 38.5404C221.838 38.5404 222.706 38.1617 223.33 37.4045C223.976 36.6472 224.299 35.6004 224.299 34.2641C224.299 32.9277 223.976 31.8921 223.33 31.1571C222.684 30.3998 221.804 30.0212 220.691 30.0212C219.711 30.0212 218.942 30.3998 218.385 31.1571C217.851 31.8921 217.584 32.9389 217.584 34.2975ZM237.843 42.6162H233.166V30.2884H231.629V25.9453H237.843V42.6162ZM235.037 23.7404C234.212 23.7404 233.567 23.5065 233.099 23.0388C232.653 22.5711 232.431 21.9252 232.431 21.1011C232.431 20.277 232.653 19.6311 233.099 19.1634C233.567 18.6957 234.212 18.4618 235.037 18.4618C235.816 18.4618 236.429 18.6957 236.874 19.1634C237.342 19.6311 237.576 20.277 237.576 21.1011C237.576 21.9252 237.342 22.5711 236.874 23.0388C236.429 23.5065 235.816 23.7404 235.037 23.7404ZM248.626 43.1507C246.042 43.1507 244.027 42.3712 242.579 40.8121C241.154 39.2531 240.441 37.0815 240.441 34.2975C240.441 31.4911 241.154 29.3196 242.579 27.7828C244.027 26.2237 246.042 25.4442 248.626 25.4442C251.187 25.4442 253.181 26.2237 254.606 27.7828C256.032 29.3419 256.744 31.5246 256.744 34.3309C256.744 37.1149 256.032 39.2865 254.606 40.8456C253.181 42.3824 251.187 43.1507 248.626 43.1507ZM245.185 34.2975C245.185 35.7897 245.486 36.9256 246.087 37.7051C246.688 38.4847 247.535 38.8744 248.626 38.8744C249.695 38.8744 250.519 38.4847 251.098 37.7051C251.7 36.9256 252 35.7897 252 34.2975C252 32.8052 251.7 31.6693 251.098 30.8898C250.519 30.1103 249.695 29.7205 248.626 29.7205C247.535 29.7205 246.688 30.1103 246.087 30.8898C245.486 31.6693 245.185 32.8052 245.185 34.2975ZM258.122 30.4555C258.122 28.8964 258.701 27.6714 259.86 26.7805C261.04 25.8896 262.666 25.4442 264.737 25.4442C265.806 25.4442 266.831 25.5556 267.811 25.7783C268.813 26.001 269.671 26.3017 270.383 26.6803L270.149 31.0902C269.414 30.7116 268.557 30.4109 267.577 30.1882C266.619 29.9432 265.728 29.8207 264.904 29.8207C263.746 29.8207 263.167 30.2216 263.167 31.0234C263.167 31.4466 263.334 31.7807 263.668 32.0257C264.025 32.2707 264.693 32.5045 265.673 32.7273C267.566 33.195 268.936 33.8409 269.782 34.665C270.628 35.4668 271.052 36.5247 271.052 37.8388C271.052 39.4424 270.428 40.7342 269.181 41.7142C267.956 42.6719 266.23 43.1507 264.002 43.1507C261.664 43.1507 259.67 42.6942 258.022 41.781L258.256 37.0704C260.372 38.1617 262.287 38.7074 264.002 38.7074C264.581 38.7074 265.049 38.6072 265.405 38.4067C265.762 38.184 265.94 37.8499 265.94 37.4045C265.94 36.5136 265.16 35.8899 263.601 35.5336C262.176 35.244 261.062 34.8766 260.261 34.4311C259.481 33.9857 258.924 33.4511 258.59 32.8275C258.278 32.1816 258.122 31.3909 258.122 30.4555Z" fill="black"/>
<defs>
<filter id="filter0_f_2214_9001" x="-49.9334" y="-6.71139" width="101.966" height="101.966" filterUnits="userSpaceOnUse" color-interpolation-filters="sRGB">
<feFlood flood-opacity="0" result="BackgroundImageFix"/>
<feBlend mode="normal" in="SourceGraphic" in2="BackgroundImageFix" result="shape"/>
<feGaussianBlur stdDeviation="15.4663" result="effect1_foregroundBlur_2214_9001"/>
</filter>
<filter id="filter1_f_2214_9001" x="-28.3367" y="5.27641" width="101.966" height="101.966" filterUnits="userSpaceOnUse" color-interpolation-filters="sRGB">
<feFlood flood-opacity="0" result="BackgroundImageFix"/>
<feBlend mode="normal" in="SourceGraphic" in2="BackgroundImageFix" result="shape"/>
<feGaussianBlur stdDeviation="15.4663" result="effect1_foregroundBlur_2214_9001"/>
</filter>
<filter id="filter2_f_2214_9001" x="-3.33282" y="8.23002" width="101.966" height="101.966" filterUnits="userSpaceOnUse" color-interpolation-filters="sRGB">
<feFlood flood-opacity="0" result="BackgroundImageFix"/>
<feBlend mode="normal" in="SourceGraphic" in2="BackgroundImageFix" result="shape"/>
<feGaussianBlur stdDeviation="15.4663" result="effect1_foregroundBlur_2214_9001"/>
</filter>
<filter id="filter3_f_2214_9001" x="7.7757" y="-10.2822" width="101.966" height="101.966" filterUnits="userSpaceOnUse" color-interpolation-filters="sRGB">
<feFlood flood-opacity="0" result="BackgroundImageFix"/>
<feBlend mode="normal" in="SourceGraphic" in2="BackgroundImageFix" result="shape"/>
<feGaussianBlur stdDeviation="15.4663" result="effect1_foregroundBlur_2214_9001"/>
</filter>
</defs>
</svg>
